<svg width="128" height="128" viewBox="0 0 128 128" xmlns="http://www.w3.org/2000/svg">
  <defs>
    <linearGradient id="bgGradient" x1="0%" y1="0%" x2="100%" y2="100%">
      <stop offset="0%" style="stop-color:rgb(88,86,214);stop-opacity:1" />
      <stop offset="100%" style="stop-color:rgb(99,102,241);stop-opacity:1" />
    </linearGradient>
  </defs>
  
  <!-- Background -->
  <rect width="128" height="128" rx="24" fill="url(#bgGradient)"/>
  
  <!-- Book Shape -->
  <g>
    <!-- Left page shadow -->
    <path d="M 35 38 L 35 90 L 64 82 L 64 30 Z" fill="rgba(67,56,202,0.15)"/>
    
    <!-- Right page shadow -->
    <path d="M 64 30 L 64 82 L 93 90 L 93 38 Z" fill="rgba(67,56,202,0.15)"/>
    
    <!-- Left page -->
    <path d="M 32 35 L 32 87 L 64 79 L 64 27 Z" fill="rgb(255,255,255)"/>
    
    <!-- Right page -->
    <path d="M 64 27 L 64 79 L 96 87 L 96 35 Z" fill="rgb(255,255,255)"/>
    
    <!-- Center spine -->
    <rect x="62" y="27" width="4" height="60" fill="rgb(67,56,202)"/>
    
    <!-- Left page lines -->
    <line x1="40" y1="42" x2="56" y2="40" stroke="rgb(67,56,202)" stroke-width="2" stroke-linecap="round"/>
    <line x1="40" y1="50" x2="56" y2="48" stroke="rgb(67,56,202)" stroke-width="2" stroke-linecap="round"/>
    <line x1="40" y1="58" x2="56" y2="56" stroke="rgb(67,56,202)" stroke-width="2" stroke-linecap="round"/>
    <line x1="40" y1="66" x2="56" y2="64" stroke="rgb(67,56,202)" stroke-width="2" stroke-linecap="round"/>
    
    <!-- Right page lines -->
    <line x1="72" y1="40" x2="88" y2="42" stroke="rgb(67,56,202)" stroke-width="2" stroke-linecap="round"/>
    <line x1="72" y1="48" x2="88" y2="50" stroke="rgb(67,56,202)" stroke-width="2" stroke-linecap="round"/>
    <line x1="72" y1="56" x2="88" y2="58" stroke="rgb(67,56,202)" stroke-width="2" stroke-linecap="round"/>
    <line x1="72" y1="64" x2="88" y2="66" stroke="rgb(67,56,202)" stroke-width="2" stroke-linecap="round"/>
  </g>
</svg>
